<svg xmlns="http://www.w3.org/2000/svg" viewBox="0 0 240 240" role="img" aria-labelledby="title desc">
  <title id="title">Default voice model avatar</title>
  <desc id="desc">A simple local VoiceChangerStudio avatar placeholder.</desc>
  <defs>
    <linearGradient id="bg" x1="30" y1="20" x2="210" y2="220" gradientUnits="userSpaceOnUse">
      <stop offset="0" stop-color="#19c8eb"/>
      <stop offset="0.52" stop-color="#ff4fb3"/>
      <stop offset="1" stop-color="#ffd166"/>
    </linearGradient>
    <linearGradient id="face" x1="70" y1="52" x2="172" y2="178" gradientUnits="userSpaceOnUse">
      <stop offset="0" stop-color="#fff7fb"/>
      <stop offset="1" stop-color="#ffe6f0"/>
    </linearGradient>
  </defs>
  <rect width="240" height="240" rx="32" fill="#141827"/>
  <circle cx="190" cy="48" r="34" fill="#19c8eb" opacity=".24"/>
  <circle cx="48" cy="188" r="42" fill="#ff4fb3" opacity=".2"/>
  <path d="M55 118c0-39 28-70 65-70s65 31 65 70v38c0 26-21 47-47 47h-36c-26 0-47-21-47-47v-38Z" fill="url(#face)"/>
  <path d="M61 111c4-38 30-64 64-64 28 0 51 17 60 43-32-4-54-16-71-35-12 25-30 41-53 56Z" fill="#30334a"/>
  <path d="M72 125c0-10 8-18 18-18h2v64h-2c-10 0-18-8-18-18v-28Zm96-18h2c10 0 18 8 18 18v28c0 10-8 18-18 18h-2v-64Z" fill="#30334a"/>
  <circle cx="100" cy="127" r="7" fill="#24283a"/>
  <circle cx="140" cy="127" r="7" fill="#24283a"/>
  <path d="M107 153c8 8 18 8 26 0" fill="none" stroke="#24283a" stroke-linecap="round" stroke-width="7"/>
  <path d="M88 206c9-17 20-25 32-25s23 8 32 25" fill="none" stroke="url(#bg)" stroke-linecap="round" stroke-width="12"/>
  <path d="M49 70h23m-12-11v23m109 94h23m-12-11v23" stroke="#ffd166" stroke-linecap="round" stroke-width="7"/>
</svg>
